<svg width="400" height="128" viewBox="0 0 400 128" fill="none" xmlns="http://www.w3.org/2000/svg">
<path d="M165.014 77.7971C164.16 77.7971 163.371 77.5893 162.646 77.1738C161.947 76.7323 161.378 76.1609 160.938 75.4597C160.524 74.7325 160.317 73.9404 160.317 73.0834V59.9161C160.317 59.059 160.524 58.2799 160.938 57.5787C161.378 56.8515 161.947 56.2801 162.646 55.8646C163.371 55.4231 164.16 55.2023 165.014 55.2023H178.523C179.403 55.2023 180.192 55.4231 180.891 55.8646C181.615 56.2801 182.185 56.8515 182.599 57.5787C183.039 58.2799 183.259 59.059 183.259 59.9161V68.0969H163.5V73.0834C163.5 73.4989 163.642 73.8625 163.927 74.1741C164.238 74.4598 164.6 74.6027 165.014 74.6027H183.259V77.7971H165.014ZM163.5 64.9025H180.037V59.9161C180.037 59.5005 179.882 59.1499 179.571 58.8642C179.286 58.5526 178.937 58.3968 178.523 58.3968H165.014C164.6 58.3968 164.238 58.5526 163.927 58.8642C163.642 59.1499 163.5 59.5005 163.5 59.9161V64.9025Z" fill="#EAEAEA"/>
<path d="M140.561 77.7971C139.707 77.7971 138.918 77.5893 138.193 77.1738C137.494 76.7323 136.925 76.1609 136.485 75.4597C136.071 74.7325 135.864 73.9404 135.864 73.0834V59.9161C135.864 59.059 136.071 58.2799 136.485 57.5787C136.925 56.8515 137.494 56.2801 138.193 55.8646C138.918 55.4231 139.707 55.2023 140.561 55.2023H158.728V58.3968H140.561C140.147 58.3968 139.785 58.5526 139.474 58.8642C139.19 59.1499 139.047 59.5005 139.047 59.9161V73.0834C139.047 73.4989 139.19 73.8625 139.474 74.1741C139.785 74.4598 140.147 74.6027 140.561 74.6027H158.806V77.7971H140.561Z" fill="#EAEAEA"/>
<path d="M115.579 77.7971C114.725 77.7971 113.935 77.5893 113.211 77.1738C112.512 76.7323 111.942 76.1609 111.503 75.4597C111.088 74.7325 110.881 73.9404 110.881 73.0834V64.9025H130.601V59.9161C130.601 59.5005 130.446 59.1499 130.136 58.8642C129.851 58.5526 129.502 58.3968 129.087 58.3968H110.881V55.2023H129.087C129.967 55.2023 130.757 55.4231 131.455 55.8646C132.18 56.2801 132.749 56.8515 133.163 57.5787C133.603 58.2799 133.823 59.059 133.823 59.9161V77.7971H115.579ZM115.579 74.6027H130.601V68.0969H114.065V73.0834C114.065 73.4989 114.207 73.8625 114.492 74.1741C114.802 74.4598 115.164 74.6027 115.579 74.6027Z" fill="#EAEAEA"/>
<path d="M104.158 77.7971L95.0358 66.8893H99.1506L108.312 77.7581V77.7971H104.158ZM80.5564 77.7971V49.7874H103.848C104.702 49.7874 105.478 50.0081 106.177 50.4496C106.901 50.8652 107.471 51.4235 107.885 52.1248C108.299 52.826 108.506 53.6051 108.506 54.4621V62.682C108.506 63.539 108.299 64.3181 107.885 65.0194C107.471 65.7206 106.901 66.2919 106.177 66.7334C105.478 67.149 104.702 67.3568 103.848 67.3568H83.7007V77.7971H80.5564ZM85.2147 64.1623H103.848C104.262 64.1623 104.611 64.0195 104.896 63.7338C105.206 63.4481 105.362 63.0975 105.362 62.682V54.4621C105.362 54.0466 105.206 53.696 104.896 53.4103C104.611 53.0987 104.262 52.9428 103.848 52.9428H85.2147C84.8006 52.9428 84.4383 53.0987 84.1277 53.4103C83.8431 53.696 83.7007 54.0466 83.7007 54.4621V62.682C83.7007 63.0975 83.8431 63.4481 84.1277 63.7338C84.4383 64.0195 84.8006 64.1623 85.2147 64.1623Z" fill="#EAEAEA"/>
<path d="M302.335 77.7971C301.481 77.7971 300.692 77.5893 299.967 77.1738C299.268 76.7323 298.699 76.1609 298.259 75.4597C297.845 74.7325 297.638 73.9404 297.638 73.0834V59.9161C297.638 59.059 297.845 58.2799 298.259 57.5787C298.699 56.8515 299.268 56.2801 299.967 55.8646C300.692 55.4231 301.481 55.2023 302.335 55.2023H315.844C316.724 55.2023 317.513 55.4231 318.212 55.8646C318.936 56.2801 319.506 56.8515 319.92 57.5787C320.36 58.2799 320.58 59.059 320.58 59.9161V68.0969H300.821V73.0834C300.821 73.4989 300.963 73.8625 301.248 74.1741C301.559 74.4598 301.921 74.6027 302.335 74.6027H320.58V77.7971H302.335ZM300.821 64.9025H317.358V59.9161C317.358 59.5005 317.203 59.1499 316.892 58.8642C316.607 58.5526 316.258 58.3968 315.844 58.3968H302.335C301.921 58.3968 301.559 58.5526 301.248 58.8642C300.963 59.1499 300.821 59.5005 300.821 59.9161V64.9025Z" fill="#EAEAEA"/>
<path d="M277.494 77.7971C276.64 77.7971 275.851 77.5893 275.126 77.1738C274.427 76.7323 273.858 76.1609 273.418 75.4597C273.004 74.7325 272.797 73.9404 272.797 73.0834V59.9161C272.797 59.059 273.004 58.2799 273.418 57.5787C273.858 56.8515 274.427 56.2801 275.126 55.8646C275.851 55.4231 276.64 55.2023 277.494 55.2023H295.661V58.3968H277.494C277.08 58.3968 276.718 58.5526 276.407 58.8642C276.122 59.1499 275.98 59.5005 275.98 59.9161V73.0834C275.98 73.4989 276.122 73.8625 276.407 74.1741C276.718 74.4598 277.08 74.6027 277.494 74.6027H295.739V77.7971H277.494Z" fill="#EAEAEA"/>
<path d="M252.123 77.7971C251.269 77.7971 250.48 77.5893 249.755 77.1738C249.056 76.7323 248.487 76.1609 248.047 75.4597C247.633 74.7325 247.426 73.9404 247.426 73.0834V64.9025H267.146V59.9161C267.146 59.5005 266.991 59.1499 266.68 58.8642C266.396 58.5526 266.046 58.3968 265.632 58.3968H247.426V55.2023H265.632C266.512 55.2023 267.301 55.4231 268 55.8646C268.725 56.2801 269.294 56.8515 269.708 57.5787C270.148 58.2799 270.368 59.059 270.368 59.9161V77.7971H252.123ZM252.123 74.6027H267.146V68.0969H250.609V73.0834C250.609 73.4989 250.752 73.8625 251.036 74.1741C251.347 74.4598 251.709 74.6027 252.123 74.6027Z" fill="#EAEAEA"/>
<path d="M218.04 77.7971V49.7874H241.331C242.185 49.7874 242.961 50.0081 243.66 50.4496C244.385 50.8652 244.954 51.4235 245.368 52.1248C245.782 52.826 245.989 53.6051 245.989 54.4621V62.682C245.989 63.539 245.782 64.3181 245.368 65.0194C244.954 65.7206 244.385 66.2919 243.66 66.7334C242.961 67.149 242.185 67.3568 241.331 67.3568H221.184V77.7971H218.04ZM222.698 64.1623H241.331C241.745 64.1623 242.094 64.0195 242.379 63.7338C242.69 63.4481 242.845 63.0975 242.845 62.682V54.4621C242.845 54.0466 242.69 53.696 242.379 53.4103C242.094 53.0987 241.745 52.9428 241.331 52.9428H222.698C222.284 52.9428 221.921 53.0987 221.611 53.4103C221.326 53.696 221.184 54.0466 221.184 54.4621V62.682C221.184 63.0975 221.326 63.4481 221.611 63.7338C221.921 64.0195 222.284 64.1623 222.698 64.1623Z" fill="#EAEAEA"/>
<path d="M199.363 69.6812C199.363 72.5318 199.238 75.5772 199.311 77.8732C199.386 80.2502 199.664 82.817 200.878 85.0539C202.201 87.4936 204.359 89.066 207.189 89.9837C209.878 90.8554 213.315 91.1884 217.58 91.1884H321V83.8841H217.58C213.556 83.884 211.026 83.551 209.428 83.0328C207.97 82.5604 207.518 82.0179 207.27 81.5602C206.912 80.8997 206.654 79.7861 206.586 77.6418C206.516 75.4153 206.641 73.0955 206.641 69.6812H199.363Z" fill="#BA2840"/>
<path d="M198.554 69.6812C198.554 72.469 198.429 75.5948 198.502 77.8985C198.578 80.3016 198.859 83.0301 200.168 85.4423C201.612 88.1022 203.958 89.7886 206.941 90.7557C209.751 91.6666 213.288 92 217.58 92H321V83.0725H217.58C213.583 83.0724 211.153 82.7399 209.676 82.2609C208.371 81.838 208.11 81.4094 207.981 81.1719C207.717 80.6864 207.462 79.7337 207.395 77.6148C207.325 75.3962 207.45 73.1579 207.45 69.6812H198.554Z" fill="#BA2840"/>
<path d="M201.385 69.6812C201.385 72.6882 201.26 75.5316 201.332 77.8082C201.406 80.1209 201.677 82.2847 202.653 84.0838C203.678 85.973 205.363 87.259 207.812 88.053C210.198 88.8264 213.382 89.1594 217.58 89.1594H321V85.913H217.58C213.489 85.913 210.707 85.58 208.805 84.9635C206.967 84.3675 206.042 83.5386 205.495 82.5303C204.899 81.432 204.634 79.9145 204.564 77.7052C204.493 75.4595 204.619 72.9387 204.619 69.6812H201.385Z" fill="#181818"/>
<path d="M202.193 69.6812C202.193 72.751 202.068 75.5139 202.14 77.7828C202.212 80.0698 202.483 82.0715 203.364 83.6954C204.269 85.3644 205.763 86.5365 208.06 87.281C210.325 88.0153 213.409 88.3478 217.58 88.3478H321V86.7246H217.58C213.462 86.7246 210.58 86.3912 208.557 85.7355C206.566 85.09 205.45 84.1472 204.784 82.9187C204.093 81.6452 203.828 79.9656 203.757 77.7305C203.686 75.4772 203.811 72.8759 203.811 69.6812H202.193Z" fill="#181818"/>
<path d="M206.486 63.1884C206.486 59.4322 206.617 55.7216 206.542 52.8152C206.465 49.8584 206.183 46.9007 205.055 44.3601C203.826 41.5893 201.722 39.5883 198.66 38.3745C195.791 37.2375 192.14 36.8116 187.669 36.8116H80V44.1159H187.669C191.828 44.1159 194.391 44.5365 195.986 45.1685C197.387 45.7239 198 46.4152 198.407 47.3322C198.916 48.4793 199.192 50.2067 199.265 53.0054C199.339 55.8548 199.208 58.9713 199.208 63.1884H206.486Z" fill="#BA2840"/>
<path d="M207.295 63.1884C207.295 59.4837 207.424 55.7073 207.349 52.7946C207.272 49.8201 206.991 46.7243 205.795 44.0288C204.473 41.0523 202.204 38.9068 198.957 37.62C195.946 36.4268 192.174 36 187.669 36H80V44.9275H187.669C191.794 44.9275 194.235 45.3472 195.689 45.923C196.905 46.4052 197.352 46.951 197.668 47.6619C198.108 48.6541 198.384 50.2446 198.456 53.026C198.53 55.8692 198.399 58.9199 198.399 63.1884H207.295Z" fill="#BA2840"/>
<path d="M204.465 63.1884C204.465 59.3041 204.595 55.7581 204.52 52.8675C204.445 49.9548 204.165 47.3393 203.209 45.1859C202.208 42.9302 200.518 41.2933 197.917 40.2625C195.402 39.2657 192.053 38.8406 187.669 38.8406H80V42.087H187.669C191.915 42.087 194.779 42.5099 196.728 43.2822C198.591 44.0204 199.618 45.0744 200.254 46.5063C200.935 48.0404 201.213 50.109 201.287 52.9515C201.361 55.8169 201.23 59.0991 201.23 63.1884H204.465Z" fill="#181818"/>
<path d="M203.656 63.1884C203.656 59.2529 203.786 55.7724 203.711 52.8881C203.636 49.993 203.357 47.5142 202.47 45.5156C201.56 43.466 200.037 41.9747 197.62 41.017C195.247 40.0763 192.019 39.6522 187.669 39.6522H80V41.2754H187.669C191.949 41.2754 194.935 41.6978 197.025 42.526C199.072 43.3375 200.266 44.5387 200.993 46.1766C201.742 47.8656 202.021 50.0709 202.095 52.9309C202.17 55.8026 202.038 59.1504 202.038 63.1884H203.656Z" fill="#181818"/>
<path d="M209.396 65.6232C209.396 69.209 206.499 72.1159 202.926 72.1159C199.353 72.1159 196.456 69.209 196.456 65.6232C196.456 62.0373 199.353 59.1304 202.926 59.1304C206.499 59.1304 209.396 62.0373 209.396 65.6232Z" fill="#181818"/>
<path d="M207.779 65.6232C207.779 62.9338 205.606 60.7536 202.926 60.7536C200.246 60.7536 198.074 62.9338 198.074 65.6232C198.074 68.3126 200.246 70.4928 202.926 70.4928V72.1159C199.353 72.1159 196.456 69.209 196.456 65.6232C196.456 62.0373 199.353 59.1304 202.926 59.1304C206.499 59.1304 209.396 62.0373 209.396 65.6232C209.396 69.209 206.499 72.1159 202.926 72.1159V70.4928C205.606 70.4928 207.779 68.3126 207.779 65.6232Z" fill="#BA2840"/>
<path d="M209.396 65.6232C209.396 69.209 206.499 72.1159 202.926 72.1159C199.353 72.1159 196.456 69.209 196.456 65.6232C196.456 62.0373 199.353 59.1304 202.926 59.1304C206.499 59.1304 209.396 62.0373 209.396 65.6232Z" fill="#181818"/>
<path d="M207.779 65.6232C207.779 62.9338 205.606 60.7536 202.926 60.7536C200.246 60.7536 198.074 62.9338 198.074 65.6232C198.074 68.3126 200.246 70.4928 202.926 70.4928V72.1159C199.353 72.1159 196.456 69.209 196.456 65.6232C196.456 62.0373 199.353 59.1304 202.926 59.1304C206.499 59.1304 209.396 62.0373 209.396 65.6232C209.396 69.209 206.499 72.1159 202.926 72.1159V70.4928C205.606 70.4928 207.779 68.3126 207.779 65.6232Z" fill="#BA2840"/>
<path d="M211.822 65.6232C211.822 70.5537 207.767 74.5507 202.764 74.5507C197.762 74.5507 193.707 70.5537 193.707 65.6232C193.707 60.6926 197.762 56.6957 202.764 56.6957C207.767 56.6957 211.822 60.6926 211.822 65.6232Z" fill="#181818"/>
<path d="M210.205 65.6224C210.204 61.5727 206.872 58.2898 202.764 58.2898C198.655 58.2902 195.324 61.5729 195.324 65.6224C195.324 69.6722 198.655 72.9562 202.764 72.9565L202.764 74.5507L202.298 74.5383C197.512 74.2989 193.707 70.3994 193.707 65.6232C193.707 60.6926 197.762 56.6957 202.764 56.6957C207.767 56.6957 211.822 60.6926 211.822 65.6232L211.81 66.0817C211.567 70.799 207.611 74.5507 202.764 74.5507L202.764 72.9565C206.873 72.9565 210.205 69.6724 210.205 65.6224Z" fill="#BA2840"/>
<path d="M207.293 65.6232C207.293 68.0884 205.266 70.0869 202.764 70.0869C200.263 70.0869 198.236 68.0884 198.236 65.6232C198.236 63.1579 200.263 61.1594 202.764 61.1594C205.266 61.1594 207.293 63.1579 207.293 65.6232Z" fill="#BA2840"/>
<path d="M198.236 61.1594H202.764V65.6232H198.236V61.1594Z" fill="#181818"/>
<path d="M196.492 66.0268L199.828 62.7381L202.77 65.637L199.433 68.9257L196.492 66.0268Z" fill="#181818"/>
<path d="M208.094 59.9742C207.652 59.5384 207.652 58.8318 208.094 58.396L209.214 57.2921C209.656 56.8563 210.373 56.8563 210.815 57.2921C211.257 57.7279 211.257 58.4344 210.815 58.8702L209.695 59.9742C209.253 60.41 208.536 60.41 208.094 59.9742Z" fill="#BA2840"/>
<path d="M196.139 62.2754C195.62 63.2783 195.324 64.415 195.324 65.6224C195.324 67.3053 195.896 68.8518 196.853 70.0876H194.913C194.147 68.774 193.707 67.2501 193.707 65.6232C193.707 64.4392 193.942 63.3093 194.364 62.2754H196.139Z" fill="#181818"/>
<path d="M197.757 62.2754C197.237 63.2783 196.942 64.4151 196.942 65.6226C196.942 67.3054 197.514 68.8518 198.471 70.0876H196.531C195.764 68.774 195.324 67.2493 195.324 65.6224C195.324 64.4384 195.559 63.3093 195.981 62.2754H197.757Z" fill="#181818"/>
<path d="M191.442 64.2283C191.442 63.766 191.822 63.3913 192.291 63.3913H197.386C197.855 63.3913 198.236 63.766 198.236 64.2283C198.236 64.6905 197.855 65.0652 197.386 65.0652H192.291C191.822 65.0652 191.442 64.6905 191.442 64.2283Z" fill="#BA2840"/>
<path d="M189.178 67.5761C189.178 67.1138 189.558 66.7391 190.027 66.7391H197.386C197.855 66.7391 198.236 67.1138 198.236 67.5761C198.236 68.0383 197.855 68.413 197.386 68.413H190.027C189.558 68.413 189.178 68.0383 189.178 67.5761Z" fill="#BA2840"/>
</svg>
